<svg xmlns="http://www.w3.org/2000/svg" viewBox="0 0 20 20"><path d="M2.65 7.24a1.1 1.1 0 0 1 .47.1 1.16 1.16 0 0 1 .39.26 1.36 1.36 0 0 1 .27.4 1.28 1.28 0 0 1 .09.48v4.9a1.32 1.32 0 0 1-.09.48 1.36 1.36 0 0 1-.27.39 1.16 1.16 0 0 1-.39.26 1.28 1.28 0 0 1-.47.1 1.29 1.29 0 0 1-.48-.1 1.2 1.2 0 0 1-.65-.65 1.15 1.15 0 0 1-.1-.48V8.47a1.12 1.12 0 0 1 .1-.47 1.2 1.2 0 0 1 .65-.65 1.12 1.12 0 0 1 .48-.11zm9.93-5a5.71 5.71 0 0 1 1.12.77 5.28 5.28 0 0 1 .87 1 4.33 4.33 0 0 1 .57 1.21 4.33 4.33 0 0 1 .2 1.35H4.48a4.64 4.64 0 0 1 .2-1.35 5 5 0 0 1 .57-1.21 5.33 5.33 0 0 1 .88-1 5.5 5.5 0 0 1 1.13-.77s-.08-.11-.18-.24l-.29-.53-.27-.54A1 1 0 0 1 6.4.66c0-.11 0-.16.15-.16a.18.18 0 0 1 .16.09l.85 1.55a5.8 5.8 0 0 1 2.35-.5 5.9 5.9 0 0 1 2.37.5l.85-1.55a.16.16 0 0 1 .15-.09.14.14 0 0 1 .16.16 1.2 1.2 0 0 1-.12.28l-.27.5-.3.53zm-8.1 5h11v7.27a1.26 1.26 0 0 1-.11.51 1.2 1.2 0 0 1-.28.41 1.37 1.37 0 0 1-.42.29 1.24 1.24 0 0 1-.5.1h-1.11v2.44a1.3 1.3 0 0 1-.09.49 1.33 1.33 0 0 1-.26.39 1.4 1.4 0 0 1-.39.26 1.2 1.2 0 0 1-1 0 1.36 1.36 0 0 1-.39-.27 1.16 1.16 0 0 1-.26-.39 1.12 1.12 0 0 1-.1-.48v-2.44H9.39v2.44a1.13 1.13 0 0 1-.1.49 1.24 1.24 0 0 1-1.14.75 1.12 1.12 0 0 1-.48-.1 1.46 1.46 0 0 1-.38-.27 1.33 1.33 0 0 1-.29-.39 1.28 1.28 0 0 1-.09-.48v-2.44H5.8a1.27 1.27 0 0 1-.52-.1 1.42 1.42 0 0 1-.41-.28 1.26 1.26 0 0 1-.39-.93zm3.07-3.06A.6.6 0 0 0 8 4a.62.62 0 0 0 .18-.44.61.61 0 0 0-.63-.56.58.58 0 0 0-.43.18.6.6 0 0 0-.18.43.62.62 0 0 0 .18.39.58.58 0 0 0 .43.18zm4.9 0a.58.58 0 0 0 .43-.18.62.62 0 0 0 .18-.44.6.6 0 0 0-.18-.43.58.58 0 0 0-.43-.13.61.61 0 0 0-.61.61A.62.62 0 0 0 12 4a.6.6 0 0 0 .45.18zm4.9 3.06a1.12 1.12 0 0 1 .48.1 1.2 1.2 0 0 1 .65.65 1.12 1.12 0 0 1 .1.48v4.9a1.22 1.22 0 0 1-.75 1.13 1.18 1.18 0 0 1-.95 0 1.16 1.16 0 0 1-.39-.26 1.36 1.36 0 0 1-.27-.39 1.32 1.32 0 0 1-.09-.48v-4.9a1.28 1.28 0 0 1 .09-.47 1.36 1.36 0 0 1 .27-.39 1.16 1.16 0 0 1 .39-.26 1.1 1.1 0 0 1 .47-.11z"/></svg>