<svg xmlns="http://www.w3.org/2000/svg" viewBox="0 0 20 20"><path d="M17.67 15.31a10.78 10.78 0 0 1-1 1.83 9 9 0 0 1-1.32 1.59 2.57 2.57 0 0 1-1.69.75 4.19 4.19 0 0 1-1.56-.37 4.49 4.49 0 0 0-1.69-.38 4.68 4.68 0 0 0-1.73.38 4.49 4.49 0 0 1-1.49.39 2.41 2.41 0 0 1-1.73-.77 9.84 9.84 0 0 1-1.38-1.64 11.5 11.5 0 0 1-1.47-2.89A10.56 10.56 0 0 1 2 10.75a6.3 6.3 0 0 1 .82-3.29 4.92 4.92 0 0 1 1.73-1.75 4.65 4.65 0 0 1 2.34-.66 5.43 5.43 0 0 1 1.81.42 5.84 5.84 0 0 0 1.44.42 7.88 7.88 0 0 0 1.59-.5A5.35 5.35 0 0 1 13.89 5a4.61 4.61 0 0 1 3.6 1.89 4 4 0 0 0-2.12 3.64 4 4 0 0 0 1.32 3 4.54 4.54 0 0 0 1.31.87c-.1.3-.21.6-.33.88zM14 .88a4.07 4.07 0 0 1-1 2.66A3.54 3.54 0 0 1 10 5v-.36a4.21 4.21 0 0 1 1.1-2.69 4.16 4.16 0 0 1 1.34-1A4.07 4.07 0 0 1 14 .5v.38z"/></svg>